<mxfile host="Electron" modified="2023-05-03T15:15:56.446Z" agent="Mozilla/5.0 (Windows NT 10.0; Win64; x64) AppleWebKit/537.36 (KHTML, like Gecko) draw.io/21.2.1 Chrome/112.0.5615.87 Electron/24.1.2 Safari/537.36" etag="a4DOLLirQvDEJl6MnE9B" version="21.2.1" type="device">
  <diagram name="Page-1" id="MuWw8hlP-7gh3ki9MRSE">
    <mxGraphModel dx="989" dy="589" grid="1" gridSize="10" guides="1" tooltips="1" connect="1" arrows="1" fold="1" page="1" pageScale="1" pageWidth="827" pageHeight="1169" math="0" shadow="0">
      <root>
        <mxCell id="0" />
        <mxCell id="1" parent="0" />
        <mxCell id="n9vFjWYDE5SBtBu7MkNS-1" value="Admin&amp;nbsp;" style="shape=umlActor;verticalLabelPosition=bottom;verticalAlign=top;html=1;points=[[0,0.3333333333333333,0,0,0],[0,1,0,0,0],[0.25,0.1,0,0,0],[0.5,0,0,0,0],[0.5,0.5,0,0,0],[0.55,1,0,0,31],[0.75,0.1,0,0,0],[1,0.3333333333333333,0,0,0],[1,1,0,0,0]];" parent="1" vertex="1">
          <mxGeometry x="31.180000000000014" y="50" width="30" height="60" as="geometry" />
        </mxCell>
        <mxCell id="n9vFjWYDE5SBtBu7MkNS-2" value="" style="rounded=0;orthogonalLoop=1;jettySize=auto;html=1;dashed=1;endArrow=none;endFill=0;exitX=0.55;exitY=1;exitDx=0;exitDy=31;exitPerimeter=0;" parent="1" source="n9vFjWYDE5SBtBu7MkNS-1" edge="1">
          <mxGeometry relative="1" as="geometry">
            <mxPoint x="46" y="120" as="sourcePoint" />
            <mxPoint x="50" y="1130" as="targetPoint" />
          </mxGeometry>
        </mxCell>
        <mxCell id="n9vFjWYDE5SBtBu7MkNS-3" value=":Product" style="shape=umlLifeline;perimeter=lifelinePerimeter;whiteSpace=wrap;html=1;container=1;collapsible=0;recursiveResize=0;outlineConnect=0;rounded=1;shadow=0;comic=0;labelBackgroundColor=none;strokeWidth=1;fontFamily=Verdana;fontSize=13;align=center;" parent="1" vertex="1">
          <mxGeometry x="430" y="50" width="100" height="1078" as="geometry" />
        </mxCell>
        <mxCell id="n9vFjWYDE5SBtBu7MkNS-4" value="" style="html=1;points=[];perimeter=orthogonalPerimeter;rounded=0;shadow=0;comic=0;labelBackgroundColor=none;strokeWidth=1;fontFamily=Verdana;fontSize=12;align=center;" parent="n9vFjWYDE5SBtBu7MkNS-3" vertex="1">
          <mxGeometry x="45" y="148" width="10" height="82" as="geometry" />
        </mxCell>
        <mxCell id="n9vFjWYDE5SBtBu7MkNS-8" value="DATABASE" style="shape=umlLifeline;perimeter=lifelinePerimeter;whiteSpace=wrap;html=1;container=0;collapsible=0;recursiveResize=0;outlineConnect=0;rounded=1;shadow=0;comic=0;labelBackgroundColor=none;strokeWidth=1;fontFamily=Verdana;fontSize=13;align=center;" parent="1" vertex="1">
          <mxGeometry x="710" y="50" width="100" height="1078" as="geometry" />
        </mxCell>
        <mxCell id="UcrVy8c6ddUO_n3f5x2V-22" value="" style="html=1;points=[];perimeter=orthogonalPerimeter;outlineConnect=0;targetShapes=umlLifeline;portConstraint=eastwest;newEdgeStyle={&quot;edgeStyle&quot;:&quot;elbowEdgeStyle&quot;,&quot;elbow&quot;:&quot;vertical&quot;,&quot;curved&quot;:0,&quot;rounded&quot;:0};" vertex="1" parent="n9vFjWYDE5SBtBu7MkNS-8">
          <mxGeometry x="45" y="943" width="10" height="37" as="geometry" />
        </mxCell>
        <mxCell id="kZ2RcLdzIM8h738nA8hj-1" value=":Sales" style="shape=umlLifeline;perimeter=lifelinePerimeter;whiteSpace=wrap;html=1;container=1;collapsible=0;recursiveResize=0;outlineConnect=0;rounded=1;shadow=0;comic=0;labelBackgroundColor=none;strokeWidth=1;fontFamily=Verdana;fontSize=13;align=center;" parent="1" vertex="1">
          <mxGeometry x="140" y="50" width="100" height="1078" as="geometry" />
        </mxCell>
        <mxCell id="kZ2RcLdzIM8h738nA8hj-2" value="" style="html=1;points=[[0,0,0,0,0]];perimeter=orthogonalPerimeter;rounded=0;shadow=0;comic=0;labelBackgroundColor=none;strokeWidth=1;fontFamily=Verdana;fontSize=12;align=center;" parent="kZ2RcLdzIM8h738nA8hj-1" vertex="1">
          <mxGeometry x="45" y="108" width="10" height="372" as="geometry" />
        </mxCell>
        <mxCell id="kZ2RcLdzIM8h738nA8hj-7" value="&lt;font style=&quot;font-size: 12px;&quot;&gt;addSalesLine(Id)&lt;/font&gt;" style="html=1;verticalAlign=bottom;endArrow=block;elbow=vertical;rounded=0;entryX=0;entryY=0;entryDx=0;entryDy=0;entryPerimeter=0;" parent="kZ2RcLdzIM8h738nA8hj-1" target="kZ2RcLdzIM8h738nA8hj-4" edge="1">
          <mxGeometry width="80" relative="1" as="geometry">
            <mxPoint x="55" y="139" as="sourcePoint" />
            <mxPoint x="214" y="138" as="targetPoint" />
          </mxGeometry>
        </mxCell>
        <mxCell id="kZ2RcLdzIM8h738nA8hj-16" value="&lt;font style=&quot;font-size: 12px;&quot;&gt;return&amp;nbsp;SalesLineId&lt;/font&gt;" style="html=1;verticalAlign=bottom;endArrow=open;dashed=1;endSize=8;edgeStyle=elbowEdgeStyle;elbow=vertical;curved=0;rounded=0;" parent="kZ2RcLdzIM8h738nA8hj-1" edge="1">
          <mxGeometry relative="1" as="geometry">
            <mxPoint x="199.5" y="238.31034482758628" as="sourcePoint" />
            <mxPoint x="55" y="238.02999999999997" as="targetPoint" />
          </mxGeometry>
        </mxCell>
        <mxCell id="kZ2RcLdzIM8h738nA8hj-17" value="&lt;font style=&quot;font-size: 12px;&quot;&gt;updateStockItem(Id, Qty)&lt;/font&gt;" style="html=1;verticalAlign=bottom;endArrow=block;elbow=vertical;rounded=0;" parent="kZ2RcLdzIM8h738nA8hj-1" edge="1">
          <mxGeometry x="0.6728" width="80" relative="1" as="geometry">
            <mxPoint x="56" y="270" as="sourcePoint" />
            <mxPoint x="475" y="273" as="targetPoint" />
            <mxPoint as="offset" />
          </mxGeometry>
        </mxCell>
        <mxCell id="kZ2RcLdzIM8h738nA8hj-22" value="" style="html=1;points=[];perimeter=orthogonalPerimeter;rounded=0;shadow=0;comic=0;labelBackgroundColor=none;strokeWidth=1;fontFamily=Verdana;fontSize=12;align=center;" parent="kZ2RcLdzIM8h738nA8hj-1" vertex="1">
          <mxGeometry x="45" y="537" width="10" height="143" as="geometry" />
        </mxCell>
        <mxCell id="kZ2RcLdzIM8h738nA8hj-35" value="&lt;font style=&quot;font-size: 12px;&quot;&gt;deleteSalesLine(Id)&lt;/font&gt;" style="html=1;verticalAlign=bottom;endArrow=block;edgeStyle=elbowEdgeStyle;elbow=vertical;curved=0;rounded=0;" parent="kZ2RcLdzIM8h738nA8hj-1" edge="1">
          <mxGeometry width="80" relative="1" as="geometry">
            <mxPoint x="55" y="760" as="sourcePoint" />
            <mxPoint x="196" y="760" as="targetPoint" />
          </mxGeometry>
        </mxCell>
        <mxCell id="n9vFjWYDE5SBtBu7MkNS-32" value="" style="html=1;points=[];perimeter=orthogonalPerimeter;rounded=0;shadow=0;comic=0;labelBackgroundColor=none;strokeWidth=1;fontFamily=Verdana;fontSize=12;align=center;" parent="kZ2RcLdzIM8h738nA8hj-1" vertex="1">
          <mxGeometry x="45" y="750" width="10" height="90" as="geometry" />
        </mxCell>
        <mxCell id="kZ2RcLdzIM8h738nA8hj-41" value="" style="html=1;verticalAlign=bottom;endArrow=open;dashed=1;endSize=8;edgeStyle=elbowEdgeStyle;elbow=vertical;curved=0;rounded=0;" parent="kZ2RcLdzIM8h738nA8hj-1" edge="1">
          <mxGeometry x="0.4803" relative="1" as="geometry">
            <mxPoint x="199.5" y="823.3103448275863" as="sourcePoint" />
            <mxPoint x="55" y="823" as="targetPoint" />
            <mxPoint as="offset" />
          </mxGeometry>
        </mxCell>
        <mxCell id="n9vFjWYDE5SBtBu7MkNS-28" value="" style="html=1;points=[];perimeter=orthogonalPerimeter;rounded=0;shadow=0;comic=0;labelBackgroundColor=none;strokeWidth=1;fontFamily=Verdana;fontSize=12;align=center;" parent="kZ2RcLdzIM8h738nA8hj-1" vertex="1">
          <mxGeometry x="45" y="907" width="10" height="123" as="geometry" />
        </mxCell>
        <mxCell id="kZ2RcLdzIM8h738nA8hj-45" value="&lt;font style=&quot;font-size: 12px;&quot;&gt;return Id&lt;/font&gt;" style="html=1;verticalAlign=bottom;endArrow=open;dashed=1;endSize=8;edgeStyle=elbowEdgeStyle;elbow=vertical;curved=0;rounded=0;" parent="kZ2RcLdzIM8h738nA8hj-1" edge="1">
          <mxGeometry relative="1" as="geometry">
            <mxPoint x="199.5" y="987.3103448275863" as="sourcePoint" />
            <mxPoint x="55" y="987" as="targetPoint" />
          </mxGeometry>
        </mxCell>
        <mxCell id="kZ2RcLdzIM8h738nA8hj-3" value=":SalesLine" style="shape=umlLifeline;perimeter=lifelinePerimeter;whiteSpace=wrap;html=1;container=1;collapsible=0;recursiveResize=0;outlineConnect=0;rounded=1;shadow=0;comic=0;labelBackgroundColor=none;strokeWidth=1;fontFamily=Verdana;fontSize=13;align=center;" parent="1" vertex="1">
          <mxGeometry x="290" y="50" width="100" height="1078" as="geometry" />
        </mxCell>
        <mxCell id="kZ2RcLdzIM8h738nA8hj-4" value="" style="html=1;points=[[0,0,0,0,0]];perimeter=orthogonalPerimeter;rounded=0;shadow=0;comic=0;labelBackgroundColor=none;strokeWidth=1;fontFamily=Verdana;fontSize=12;align=center;" parent="kZ2RcLdzIM8h738nA8hj-3" vertex="1">
          <mxGeometry x="45" y="138" width="10" height="100" as="geometry" />
        </mxCell>
        <mxCell id="kZ2RcLdzIM8h738nA8hj-8" value="&lt;font style=&quot;font-size: 12px;&quot;&gt;getProduct(Id)&lt;/font&gt;" style="html=1;verticalAlign=bottom;endArrow=block;elbow=vertical;rounded=0;" parent="kZ2RcLdzIM8h738nA8hj-3" edge="1">
          <mxGeometry width="80" relative="1" as="geometry">
            <mxPoint x="55" y="149" as="sourcePoint" />
            <mxPoint x="187" y="149" as="targetPoint" />
          </mxGeometry>
        </mxCell>
        <mxCell id="kZ2RcLdzIM8h738nA8hj-14" value="&lt;font style=&quot;font-size: 12px;&quot;&gt;return product Id&lt;/font&gt;" style="html=1;verticalAlign=bottom;endArrow=open;dashed=1;endSize=8;edgeStyle=elbowEdgeStyle;elbow=vertical;curved=0;rounded=0;" parent="kZ2RcLdzIM8h738nA8hj-3" edge="1">
          <mxGeometry relative="1" as="geometry">
            <mxPoint x="189.5" y="230" as="sourcePoint" />
            <mxPoint x="55" y="230" as="targetPoint" />
            <Array as="points">
              <mxPoint x="120" y="230" />
              <mxPoint x="90" y="200" />
            </Array>
          </mxGeometry>
        </mxCell>
        <mxCell id="kZ2RcLdzIM8h738nA8hj-25" value="" style="html=1;points=[];perimeter=orthogonalPerimeter;rounded=0;shadow=0;comic=0;labelBackgroundColor=none;strokeWidth=1;fontFamily=Verdana;fontSize=12;align=center;" parent="kZ2RcLdzIM8h738nA8hj-3" vertex="1">
          <mxGeometry x="45" y="570" width="10" height="80" as="geometry" />
        </mxCell>
        <mxCell id="kZ2RcLdzIM8h738nA8hj-31" value="&lt;font style=&quot;font-size: 12px;&quot;&gt;editStock(Id)&lt;/font&gt;" style="html=1;verticalAlign=bottom;endArrow=block;edgeStyle=elbowEdgeStyle;elbow=vertical;curved=0;rounded=0;entryX=0.167;entryY=0.019;entryDx=0;entryDy=0;entryPerimeter=0;" parent="kZ2RcLdzIM8h738nA8hj-3" target="kZ2RcLdzIM8h738nA8hj-32" edge="1">
          <mxGeometry x="0.4942" width="80" relative="1" as="geometry">
            <mxPoint x="55" y="580" as="sourcePoint" />
            <mxPoint x="135" y="580" as="targetPoint" />
            <mxPoint as="offset" />
          </mxGeometry>
        </mxCell>
        <mxCell id="kZ2RcLdzIM8h738nA8hj-36" value="" style="html=1;points=[];perimeter=orthogonalPerimeter;rounded=0;shadow=0;comic=0;labelBackgroundColor=none;strokeWidth=1;fontFamily=Verdana;fontSize=12;align=center;" parent="kZ2RcLdzIM8h738nA8hj-3" vertex="1">
          <mxGeometry x="45" y="760" width="10" height="63" as="geometry" />
        </mxCell>
        <mxCell id="kZ2RcLdzIM8h738nA8hj-38" value="&lt;font style=&quot;font-size: 12px;&quot;&gt;updateStockItem(Id, Qty)&lt;/font&gt;" style="html=1;verticalAlign=bottom;endArrow=block;edgeStyle=elbowEdgeStyle;elbow=vertical;curved=0;rounded=0;entryX=-0.1;entryY=-0.025;entryDx=0;entryDy=0;entryPerimeter=0;" parent="kZ2RcLdzIM8h738nA8hj-3" edge="1">
          <mxGeometry x="0.521" y="1" width="80" relative="1" as="geometry">
            <mxPoint x="55" y="772" as="sourcePoint" />
            <mxPoint x="324" y="771" as="targetPoint" />
            <mxPoint as="offset" />
          </mxGeometry>
        </mxCell>
        <mxCell id="kZ2RcLdzIM8h738nA8hj-40" value="&lt;font style=&quot;font-size: 12px;&quot;&gt;return bool&lt;/font&gt;" style="html=1;verticalAlign=bottom;endArrow=open;dashed=1;endSize=8;edgeStyle=elbowEdgeStyle;elbow=vertical;curved=0;rounded=0;" parent="kZ2RcLdzIM8h738nA8hj-3" edge="1">
          <mxGeometry x="0.4803" relative="1" as="geometry">
            <mxPoint x="326" y="810" as="sourcePoint" />
            <mxPoint x="55" y="810" as="targetPoint" />
            <mxPoint as="offset" />
          </mxGeometry>
        </mxCell>
        <mxCell id="n9vFjWYDE5SBtBu7MkNS-21" value="" style="html=1;points=[];perimeter=orthogonalPerimeter;rounded=0;shadow=0;comic=0;labelBackgroundColor=none;strokeWidth=1;fontFamily=Verdana;fontSize=12;align=center;" parent="kZ2RcLdzIM8h738nA8hj-3" vertex="1">
          <mxGeometry x="45" y="937" width="10" height="50" as="geometry" />
        </mxCell>
        <mxCell id="kZ2RcLdzIM8h738nA8hj-9" value=":Stock" style="shape=umlLifeline;perimeter=lifelinePerimeter;whiteSpace=wrap;html=1;container=1;collapsible=0;recursiveResize=0;outlineConnect=0;rounded=1;shadow=0;comic=0;labelBackgroundColor=none;strokeWidth=1;fontFamily=Verdana;fontSize=13;align=center;" parent="1" vertex="1">
          <mxGeometry x="570" y="50" width="100" height="1078" as="geometry" />
        </mxCell>
        <mxCell id="kZ2RcLdzIM8h738nA8hj-11" value="" style="html=1;points=[];perimeter=orthogonalPerimeter;rounded=0;shadow=0;comic=0;labelBackgroundColor=none;strokeWidth=1;fontFamily=Verdana;fontSize=12;align=center;" parent="kZ2RcLdzIM8h738nA8hj-9" vertex="1">
          <mxGeometry x="45" y="272" width="10" height="82" as="geometry" />
        </mxCell>
        <mxCell id="kZ2RcLdzIM8h738nA8hj-32" value="" style="html=1;points=[];perimeter=orthogonalPerimeter;rounded=0;shadow=0;comic=0;labelBackgroundColor=none;strokeWidth=1;fontFamily=Verdana;fontSize=12;align=center;" parent="kZ2RcLdzIM8h738nA8hj-9" vertex="1">
          <mxGeometry x="45" y="578" width="10" height="52" as="geometry" />
        </mxCell>
        <mxCell id="kZ2RcLdzIM8h738nA8hj-39" value="" style="html=1;points=[];perimeter=orthogonalPerimeter;rounded=0;shadow=0;comic=0;labelBackgroundColor=none;strokeWidth=1;fontFamily=Verdana;fontSize=12;align=center;" parent="kZ2RcLdzIM8h738nA8hj-9" vertex="1">
          <mxGeometry x="45" y="770" width="10" height="40" as="geometry" />
        </mxCell>
        <mxCell id="UcrVy8c6ddUO_n3f5x2V-18" value="&lt;font style=&quot;font-size: 12px;&quot;&gt;updateStock(Id, Qty)&lt;/font&gt;" style="html=1;verticalAlign=bottom;endArrow=block;edgeStyle=elbowEdgeStyle;elbow=vertical;curved=0;rounded=0;entryX=0.167;entryY=-0.016;entryDx=0;entryDy=0;entryPerimeter=0;" edge="1" parent="kZ2RcLdzIM8h738nA8hj-9">
          <mxGeometry width="80" relative="1" as="geometry">
            <mxPoint x="56" y="775.33" as="sourcePoint" />
            <mxPoint x="187" y="774.33" as="targetPoint" />
          </mxGeometry>
        </mxCell>
        <mxCell id="UcrVy8c6ddUO_n3f5x2V-19" value="&lt;font style=&quot;font-size: 12px;&quot;&gt;Stock Updated&lt;/font&gt;" style="html=1;verticalAlign=bottom;endArrow=open;dashed=1;endSize=8;edgeStyle=elbowEdgeStyle;elbow=vertical;curved=0;rounded=0;" edge="1" parent="kZ2RcLdzIM8h738nA8hj-9">
          <mxGeometry relative="1" as="geometry">
            <mxPoint x="190" y="802.33" as="sourcePoint" />
            <mxPoint x="55" y="802.33" as="targetPoint" />
          </mxGeometry>
        </mxCell>
        <mxCell id="kZ2RcLdzIM8h738nA8hj-18" value="" style="html=1;verticalAlign=bottom;endArrow=open;dashed=1;endSize=8;elbow=vertical;rounded=0;" parent="1" edge="1">
          <mxGeometry relative="1" as="geometry">
            <mxPoint x="619.5" y="404" as="sourcePoint" />
            <mxPoint x="195" y="404" as="targetPoint" />
            <Array as="points">
              <mxPoint x="390" y="404" />
              <mxPoint x="350" y="404" />
            </Array>
          </mxGeometry>
        </mxCell>
        <mxCell id="kZ2RcLdzIM8h738nA8hj-19" value="loop" style="shape=umlFrame;whiteSpace=wrap;html=1;pointerEvents=0;" parent="1" vertex="1">
          <mxGeometry x="110" y="170" width="390" height="130" as="geometry" />
        </mxCell>
        <mxCell id="kZ2RcLdzIM8h738nA8hj-24" value="&lt;font style=&quot;font-size: 12px;&quot;&gt;getSalesLine(Id)&lt;/font&gt;" style="html=1;verticalAlign=bottom;endArrow=block;edgeStyle=elbowEdgeStyle;elbow=vertical;curved=0;rounded=0;entryX=-0.193;entryY=0.032;entryDx=0;entryDy=0;entryPerimeter=0;" parent="1" edge="1">
          <mxGeometry width="80" relative="1" as="geometry">
            <mxPoint x="195" y="622" as="sourcePoint" />
            <mxPoint x="332.5" y="622.31" as="targetPoint" />
          </mxGeometry>
        </mxCell>
        <mxCell id="kZ2RcLdzIM8h738nA8hj-27" value="loop" style="shape=umlFrame;whiteSpace=wrap;html=1;pointerEvents=0;" parent="1" vertex="1">
          <mxGeometry x="137" y="600" width="250" height="110" as="geometry" />
        </mxCell>
        <mxCell id="kZ2RcLdzIM8h738nA8hj-29" value="" style="html=1;verticalAlign=bottom;endArrow=open;dashed=1;endSize=8;elbow=vertical;rounded=0;exitX=-0.159;exitY=0.821;exitDx=0;exitDy=0;exitPerimeter=0;" parent="1" edge="1">
          <mxGeometry relative="1" as="geometry">
            <mxPoint x="332.40999999999985" y="700" as="sourcePoint" />
            <mxPoint x="194" y="700" as="targetPoint" />
          </mxGeometry>
        </mxCell>
        <mxCell id="kZ2RcLdzIM8h738nA8hj-21" value="&lt;font style=&quot;font-size: 12px;&quot;&gt;editSales(Id)&lt;/font&gt;" style="html=1;verticalAlign=bottom;endArrow=block;elbow=vertical;rounded=0;" parent="1" edge="1">
          <mxGeometry width="80" relative="1" as="geometry">
            <mxPoint x="52" y="587" as="sourcePoint" />
            <mxPoint x="190" y="587" as="targetPoint" />
          </mxGeometry>
        </mxCell>
        <mxCell id="kZ2RcLdzIM8h738nA8hj-33" value="&lt;font style=&quot;font-size: 12px;&quot;&gt;return bool&lt;/font&gt;" style="html=1;verticalAlign=bottom;endArrow=open;dashed=1;endSize=8;edgeStyle=elbowEdgeStyle;elbow=vertical;curved=0;rounded=0;entryX=1.033;entryY=0.754;entryDx=0;entryDy=0;entryPerimeter=0;" parent="1" source="kZ2RcLdzIM8h738nA8hj-9" edge="1" target="kZ2RcLdzIM8h738nA8hj-25">
          <mxGeometry x="0.4803" relative="1" as="geometry">
            <mxPoint x="430" y="680.03" as="sourcePoint" />
            <mxPoint x="350" y="680" as="targetPoint" />
            <mxPoint as="offset" />
          </mxGeometry>
        </mxCell>
        <mxCell id="kZ2RcLdzIM8h738nA8hj-42" value="" style="html=1;verticalAlign=bottom;endArrow=open;dashed=1;endSize=8;edgeStyle=elbowEdgeStyle;elbow=vertical;curved=0;rounded=0;" parent="1" source="kZ2RcLdzIM8h738nA8hj-1" edge="1">
          <mxGeometry x="0.4803" relative="1" as="geometry">
            <mxPoint x="197" y="890.28" as="sourcePoint" />
            <mxPoint x="52" y="890.28" as="targetPoint" />
            <mxPoint as="offset" />
          </mxGeometry>
        </mxCell>
        <mxCell id="UcrVy8c6ddUO_n3f5x2V-25" value="&lt;font style=&quot;font-size: 12px;&quot;&gt;Sales Deleted&lt;/font&gt;" style="edgeLabel;html=1;align=center;verticalAlign=middle;resizable=0;points=[];" vertex="1" connectable="0" parent="kZ2RcLdzIM8h738nA8hj-42">
          <mxGeometry x="0.0493" y="-2" relative="1" as="geometry">
            <mxPoint y="-8" as="offset" />
          </mxGeometry>
        </mxCell>
        <mxCell id="kZ2RcLdzIM8h738nA8hj-44" value="&lt;font style=&quot;font-size: 12px;&quot;&gt;getSalesLine(Id)&lt;/font&gt;" style="html=1;verticalAlign=bottom;endArrow=block;edgeStyle=elbowEdgeStyle;elbow=vertical;curved=0;rounded=0;exitX=0.979;exitY=0.272;exitDx=0;exitDy=0;exitPerimeter=0;" parent="1" edge="1">
          <mxGeometry width="80" relative="1" as="geometry">
            <mxPoint x="194.78999999999996" y="987.3039999999999" as="sourcePoint" />
            <mxPoint x="334.9999999999998" y="987.2758620689656" as="targetPoint" />
          </mxGeometry>
        </mxCell>
        <mxCell id="kZ2RcLdzIM8h738nA8hj-47" value="loop" style="shape=umlFrame;whiteSpace=wrap;html=1;pointerEvents=0;" parent="1" vertex="1">
          <mxGeometry x="137" y="969" width="250" height="81" as="geometry" />
        </mxCell>
        <mxCell id="kZ2RcLdzIM8h738nA8hj-48" value="" style="html=1;verticalAlign=bottom;endArrow=open;dashed=1;endSize=8;edgeStyle=elbowEdgeStyle;elbow=vertical;curved=0;rounded=0;" parent="1" edge="1">
          <mxGeometry relative="1" as="geometry">
            <mxPoint x="189.5" y="1079.3333333333333" as="sourcePoint" />
            <mxPoint x="53" y="1079.03" as="targetPoint" />
          </mxGeometry>
        </mxCell>
        <mxCell id="UcrVy8c6ddUO_n3f5x2V-26" value="&lt;font style=&quot;font-size: 12px;&quot;&gt;Getting All&amp;nbsp;&lt;/font&gt;Sales" style="edgeLabel;html=1;align=center;verticalAlign=middle;resizable=0;points=[];" vertex="1" connectable="0" parent="kZ2RcLdzIM8h738nA8hj-48">
          <mxGeometry x="0.4157" y="-1" relative="1" as="geometry">
            <mxPoint x="27" y="-10" as="offset" />
          </mxGeometry>
        </mxCell>
        <mxCell id="n9vFjWYDE5SBtBu7MkNS-9" value="" style="html=1;points=[[0,0,0,0,0]];perimeter=orthogonalPerimeter;rounded=0;shadow=0;comic=0;labelBackgroundColor=none;strokeWidth=1;fontFamily=Verdana;fontSize=12;align=center;" parent="1" vertex="1">
          <mxGeometry x="42" y="150" width="10" height="940" as="geometry" />
        </mxCell>
        <mxCell id="kZ2RcLdzIM8h738nA8hj-5" value="&lt;font style=&quot;font-size: 12px;&quot;&gt;addSales()&lt;/font&gt;" style="html=1;verticalAlign=bottom;endArrow=block;edgeStyle=elbowEdgeStyle;elbow=vertical;curved=0;rounded=0;" parent="1" edge="1">
          <mxGeometry width="80" relative="1" as="geometry">
            <mxPoint x="52" y="158" as="sourcePoint" />
            <mxPoint x="190" y="158" as="targetPoint" />
          </mxGeometry>
        </mxCell>
        <mxCell id="kZ2RcLdzIM8h738nA8hj-30" value="" style="html=1;verticalAlign=bottom;endArrow=open;dashed=1;endSize=8;edgeStyle=elbowEdgeStyle;elbow=vertical;curved=0;rounded=0;" parent="1" edge="1">
          <mxGeometry relative="1" as="geometry">
            <mxPoint x="189.5" y="729.3333333333333" as="sourcePoint" />
            <mxPoint x="52" y="729.03" as="targetPoint" />
          </mxGeometry>
        </mxCell>
        <mxCell id="UcrVy8c6ddUO_n3f5x2V-17" value="&lt;font style=&quot;font-size: 12px;&quot;&gt;Sales&amp;nbsp;Edited&lt;/font&gt;" style="edgeLabel;html=1;align=center;verticalAlign=middle;resizable=0;points=[];" vertex="1" connectable="0" parent="kZ2RcLdzIM8h738nA8hj-30">
          <mxGeometry x="-0.1513" y="-3" relative="1" as="geometry">
            <mxPoint x="-10" y="-5" as="offset" />
          </mxGeometry>
        </mxCell>
        <mxCell id="kZ2RcLdzIM8h738nA8hj-34" value="&lt;font style=&quot;font-size: 12px;&quot;&gt;deleteSales()&lt;/font&gt;" style="html=1;verticalAlign=bottom;endArrow=block;edgeStyle=elbowEdgeStyle;elbow=vertical;curved=0;rounded=0;" parent="1" target="kZ2RcLdzIM8h738nA8hj-1" edge="1">
          <mxGeometry width="80" relative="1" as="geometry">
            <mxPoint x="52" y="800" as="sourcePoint" />
            <mxPoint x="132" y="800" as="targetPoint" />
          </mxGeometry>
        </mxCell>
        <mxCell id="kZ2RcLdzIM8h738nA8hj-43" value="&lt;font style=&quot;font-size: 12px;&quot;&gt;getAllSales()&lt;/font&gt;" style="html=1;verticalAlign=bottom;endArrow=block;edgeStyle=elbowEdgeStyle;elbow=vertical;curved=0;rounded=0;" parent="1" edge="1">
          <mxGeometry width="80" relative="1" as="geometry">
            <mxPoint x="52" y="955" as="sourcePoint" />
            <mxPoint x="190" y="955" as="targetPoint" />
          </mxGeometry>
        </mxCell>
        <mxCell id="kZ2RcLdzIM8h738nA8hj-20" value="" style="html=1;verticalAlign=bottom;endArrow=open;dashed=1;endSize=8;edgeStyle=elbowEdgeStyle;elbow=vertical;curved=0;rounded=0;" parent="1" edge="1">
          <mxGeometry x="-0.0021" relative="1" as="geometry">
            <mxPoint x="185" y="530.0003448275863" as="sourcePoint" />
            <mxPoint x="50" y="530" as="targetPoint" />
            <mxPoint as="offset" />
            <Array as="points" />
          </mxGeometry>
        </mxCell>
        <mxCell id="UcrVy8c6ddUO_n3f5x2V-6" value="&lt;font style=&quot;font-size: 12px;&quot;&gt;Sales Added&lt;/font&gt;" style="edgeLabel;html=1;align=center;verticalAlign=middle;resizable=0;points=[];" vertex="1" connectable="0" parent="kZ2RcLdzIM8h738nA8hj-20">
          <mxGeometry x="-0.3219" relative="1" as="geometry">
            <mxPoint x="-19" y="-11" as="offset" />
          </mxGeometry>
        </mxCell>
        <mxCell id="UcrVy8c6ddUO_n3f5x2V-3" value="&lt;font style=&quot;font-size: 12px;&quot;&gt;addSales()&lt;/font&gt;" style="html=1;verticalAlign=bottom;endArrow=block;elbow=vertical;rounded=0;" edge="1" parent="1">
          <mxGeometry x="0.7679" width="80" relative="1" as="geometry">
            <mxPoint x="195" y="438" as="sourcePoint" />
            <mxPoint x="755" y="438" as="targetPoint" />
            <mxPoint as="offset" />
          </mxGeometry>
        </mxCell>
        <mxCell id="UcrVy8c6ddUO_n3f5x2V-4" value="" style="html=1;points=[];perimeter=orthogonalPerimeter;rounded=0;shadow=0;comic=0;labelBackgroundColor=none;strokeWidth=1;fontFamily=Verdana;fontSize=12;align=center;" vertex="1" parent="1">
          <mxGeometry x="755" y="437" width="10" height="82" as="geometry" />
        </mxCell>
        <mxCell id="UcrVy8c6ddUO_n3f5x2V-5" value="" style="html=1;verticalAlign=bottom;endArrow=open;dashed=1;endSize=8;elbow=vertical;rounded=0;" edge="1" parent="1">
          <mxGeometry relative="1" as="geometry">
            <mxPoint x="759.5" y="519" as="sourcePoint" />
            <mxPoint x="195" y="518" as="targetPoint" />
            <Array as="points">
              <mxPoint x="530" y="519" />
              <mxPoint x="490" y="519" />
            </Array>
          </mxGeometry>
        </mxCell>
        <mxCell id="UcrVy8c6ddUO_n3f5x2V-13" value="&lt;font style=&quot;font-size: 12px;&quot;&gt;Sales Added&lt;/font&gt;" style="edgeLabel;html=1;align=center;verticalAlign=middle;resizable=0;points=[];" vertex="1" connectable="0" parent="UcrVy8c6ddUO_n3f5x2V-5">
          <mxGeometry x="0.7579" y="1" relative="1" as="geometry">
            <mxPoint x="3" y="-11" as="offset" />
          </mxGeometry>
        </mxCell>
        <mxCell id="UcrVy8c6ddUO_n3f5x2V-7" value="" style="html=1;points=[];perimeter=orthogonalPerimeter;rounded=0;shadow=0;comic=0;labelBackgroundColor=none;strokeWidth=1;fontFamily=Verdana;fontSize=12;align=center;" vertex="1" parent="1">
          <mxGeometry x="755" y="330" width="10" height="62" as="geometry" />
        </mxCell>
        <mxCell id="UcrVy8c6ddUO_n3f5x2V-8" value="&lt;font style=&quot;font-size: 12px;&quot;&gt;updateStock(Id, Qty)&lt;/font&gt;" style="html=1;verticalAlign=bottom;endArrow=block;edgeStyle=elbowEdgeStyle;elbow=vertical;curved=0;rounded=0;entryX=0.167;entryY=-0.016;entryDx=0;entryDy=0;entryPerimeter=0;" edge="1" parent="1" target="UcrVy8c6ddUO_n3f5x2V-7">
          <mxGeometry width="80" relative="1" as="geometry">
            <mxPoint x="626" y="330" as="sourcePoint" />
            <mxPoint x="750" y="330" as="targetPoint" />
          </mxGeometry>
        </mxCell>
        <mxCell id="UcrVy8c6ddUO_n3f5x2V-12" value="&lt;font style=&quot;font-size: 12px;&quot;&gt;Stock Updated&lt;/font&gt;" style="html=1;verticalAlign=bottom;endArrow=open;dashed=1;endSize=8;edgeStyle=elbowEdgeStyle;elbow=vertical;curved=0;rounded=0;" edge="1" parent="1" source="n9vFjWYDE5SBtBu7MkNS-8">
          <mxGeometry relative="1" as="geometry">
            <mxPoint x="705" y="392" as="sourcePoint" />
            <mxPoint x="625" y="392" as="targetPoint" />
          </mxGeometry>
        </mxCell>
        <mxCell id="UcrVy8c6ddUO_n3f5x2V-14" value="&lt;font style=&quot;font-size: 12px;&quot;&gt;editSales(Id)&lt;/font&gt;" style="html=1;verticalAlign=bottom;endArrow=block;edgeStyle=elbowEdgeStyle;elbow=vertical;curved=0;rounded=0;entryX=-0.133;entryY=0.016;entryDx=0;entryDy=0;entryPerimeter=0;" edge="1" parent="1" target="UcrVy8c6ddUO_n3f5x2V-15">
          <mxGeometry width="80" relative="1" as="geometry">
            <mxPoint x="626" y="634" as="sourcePoint" />
            <mxPoint x="706" y="634" as="targetPoint" />
          </mxGeometry>
        </mxCell>
        <mxCell id="UcrVy8c6ddUO_n3f5x2V-15" value="" style="html=1;points=[];perimeter=orthogonalPerimeter;rounded=0;shadow=0;comic=0;labelBackgroundColor=none;strokeWidth=1;fontFamily=Verdana;fontSize=12;align=center;" vertex="1" parent="1">
          <mxGeometry x="756" y="633" width="10" height="37" as="geometry" />
        </mxCell>
        <mxCell id="UcrVy8c6ddUO_n3f5x2V-16" value="&lt;font style=&quot;font-size: 12px;&quot;&gt;Edited&lt;/font&gt;" style="html=1;verticalAlign=bottom;endArrow=open;dashed=1;endSize=8;edgeStyle=elbowEdgeStyle;elbow=vertical;curved=0;rounded=0;" edge="1" parent="1" source="n9vFjWYDE5SBtBu7MkNS-8">
          <mxGeometry relative="1" as="geometry">
            <mxPoint x="707" y="670" as="sourcePoint" />
            <mxPoint x="627" y="670" as="targetPoint" />
          </mxGeometry>
        </mxCell>
        <mxCell id="UcrVy8c6ddUO_n3f5x2V-20" value="" style="html=1;points=[];perimeter=orthogonalPerimeter;rounded=0;shadow=0;comic=0;labelBackgroundColor=none;strokeWidth=1;fontFamily=Verdana;fontSize=12;align=center;" vertex="1" parent="1">
          <mxGeometry x="756" y="825" width="10" height="27" as="geometry" />
        </mxCell>
        <mxCell id="UcrVy8c6ddUO_n3f5x2V-24" value="&lt;font style=&quot;font-size: 12px;&quot;&gt;Getting All&amp;nbsp;&lt;/font&gt;Sales" style="html=1;verticalAlign=bottom;endArrow=open;dashed=1;endSize=8;elbow=vertical;rounded=0;entryX=1.167;entryY=0.093;entryDx=0;entryDy=0;entryPerimeter=0;" edge="1" parent="1">
          <mxGeometry x="-0.6775" y="1" relative="1" as="geometry">
            <mxPoint x="346.6700000000001" y="1030.6499999999999" as="targetPoint" />
            <mxPoint x="756" y="1030.6499999999999" as="sourcePoint" />
            <mxPoint as="offset" />
          </mxGeometry>
        </mxCell>
        <mxCell id="UcrVy8c6ddUO_n3f5x2V-23" value="&lt;font style=&quot;font-size: 12px;&quot;&gt;getAllSales()&lt;/font&gt;" style="html=1;verticalAlign=bottom;endArrow=block;elbow=vertical;rounded=0;exitX=1.167;exitY=0.213;exitDx=0;exitDy=0;exitPerimeter=0;" edge="1" parent="1">
          <mxGeometry x="0.6816" y="3" relative="1" as="geometry">
            <mxPoint x="346.6700000000001" y="993.6499999999999" as="sourcePoint" />
            <mxPoint x="755" y="993.6499999999999" as="targetPoint" />
            <mxPoint as="offset" />
          </mxGeometry>
        </mxCell>
      </root>
    </mxGraphModel>
  </diagram>
</mxfile>
